<?xml version="1.0" standalone="no"?><!DOCTYPE svg PUBLIC "-//W3C//DTD SVG 1.1//EN" "http://www.w3.org/Graphics/SVG/1.1/DTD/svg11.dtd"><svg t="1768282288934" class="icon" viewBox="0 0 1024 1024" version="1.1" xmlns="http://www.w3.org/2000/svg" p-id="1985" xmlns:xlink="http://www.w3.org/1999/xlink" width="200" height="200"><path d="M897.6384 448.512H368.64a140.4928 140.4928 0 1 1 0-281.1904h528.9984a20.48 20.48 0 1 1 0 40.96H368.64a99.5328 99.5328 0 1 0 0 199.0656h528.9984a20.48 20.48 0 0 1 0 40.96z" fill="#2c2c2c" p-id="1986"></path><path d="M835.584 444.416a20.48 20.48 0 0 1-16.7936-8.8064A222.8224 222.8224 0 0 1 819.2 177.152a20.48 20.48 0 0 1 32.3584 25.1904 178.7904 178.7904 0 0 0 0 209.92 20.48 20.48 0 0 1-16.7936 32.1536zM897.6384 940.032H368.64a140.4928 140.4928 0 1 1 0-280.9856h528.9984a20.48 20.48 0 0 1 0 40.96H368.64a99.5328 99.5328 0 1 0 0 199.0656h528.9984a20.48 20.48 0 0 1 0 40.96z" fill="#2c2c2c" p-id="1987"></path><path d="M835.584 935.936a20.48 20.48 0 0 1-16.7936-8.8064 223.0272 223.0272 0 0 1 0-258.4576 20.48 20.48 0 0 1 32.3584 25.1904 178.7904 178.7904 0 0 0 0 209.92 20.48 20.48 0 0 1-16.7936 32.1536zM655.36 694.272H126.3616a20.48 20.48 0 0 1 0-40.96H655.36a99.5328 99.5328 0 0 0 0-199.0656H126.3616a20.48 20.48 0 1 1 0-40.96H655.36a140.4928 140.4928 0 0 1 0 280.9856z" fill="#2c2c2c" p-id="1988"></path><path d="M188.416 690.176a20.48 20.48 0 0 1-16.7936-32.1536 178.7904 178.7904 0 0 0 0-209.92A20.48 20.48 0 0 1 204.8 422.912a222.8224 222.8224 0 0 1 0 258.4576 20.48 20.48 0 0 1-16.384 8.8064z" fill="#2c2c2c" p-id="1989"></path></svg>