<svg version="1.0" xmlns="http://www.w3.org/2000/svg" width="800.000000" height="800.000000" viewBox="0 0 800.000000 800.000000" preserveAspectRatio="xMidYMid meet">
  <metadata>
    <rdf:RDF xmlns:rdf="http://www.w3.org/1999/02/22-rdf-syntax-ns#" xmlns:rdfs="http://www.w3.org/2000/01/rdf-schema#" xmlns:dc="http://purl.org/dc/elements/1.1/">
      <rdf:Description dc:format="image/svg+xml" dc:Label="1" dc:ContentProducer="001191330110MACRLGPT8B00000" dc:ProduceID="354451431" dc:ReservedCode1="eKHFUeRXpu4G/l/XWM+I7woSKxrhpW6LF4eswDHhtv8=" dc:ContentPropagator="001191330110MACRLGPT8B00000" dc:PropagateID="354451431" dc:ReservedCode2="eKHFUeRXpu4G/l/XWM+I7woSKxrhpW6LF4eswDHhtv8="/>
    </rdf:RDF>
  </metadata>
  <g transform="translate(0.000000,800.000000) scale(0.100000,-0.100000)" fill="#000000" stroke="none">
    <path d="M3880 6404 c-80 -36 -170 -76 -200 -89 -77 -32 -407 -175 -515 -223 -181 -79 -475 -206 -655 -283 -388 -166 -407 -175 -456 -226 -24 -24 -53 -69 -66 -101 l-23 -57 -3 -1489 c-3 -1678 -8 -1562 72 -1640 31 -30 72 -53 152 -86 126 -52 284 -144 387 -226 39 -32 127 -111 193 -176 l121 -118 102 0 101 0 127 61 c71 34 174 83 229 109 56 27 111 58 123 71 32 34 28 81 -10 113 -17 14 -37 26 -44 26 -7 0 -118 -49 -246 -110 -128 -60 -237 -110 -243 -110 -8 0 -10 456 -8 1557 3 1748 7 1641 -69 1768 -22 37 -39 68 -37 71 6 5 171 78 418 184 244 105 535 230 950 410 619 268 626 271 653 261 14 -5 29 -16 34 -23 4 -7 10 -310 13 -673 l5 -660 78 -3 77 -3 0 676 c0 745 2 715 -63 784 -44 46 -101 71 -167 71 -48 0 -88 -14 -335 -121 -767 -331 -1166 -504 -1225 -529 -36 -16 -121 -53 -190 -83 -308 -134 -411 -177 -424 -177 -8 0 -72 14 -141 30 -69 17 -137 30 -151 30 -62 0 -99 -96 -54 -138 12 -11 70 -31 133 -47 61 -15 135 -36 164 -47 58 -21 114 -77 144 -142 18 -40 19 -95 19 -1558 0 -835 -4 -1518 -8 -1518 -4 0 -24 16 -43 36 -112 119 -325 260 -509 339 -131 55 -147 67 -160 117 -9 30 -11 440 -8 1482 l4 1441 22 42 c12 24 34 50 48 60 14 9 135 63 267 120 356 153 558 241 782 338 110 48 313 136 450 195 442 191 445 193 445 253 0 13 -9 36 -21 51 -33 41 -74 35 -239 -40z"/>
    <path d="M4720 4439 c-139 -16 -291 -50 -402 -89 -235 -84 -376 -186 -451 -325 l-32 -60 -3 -899 -2 -900 26 -54 c66 -135 330 -264 674 -328 74 -14 146 -18 325 -18 242 0 326 10 540 66 354 93 602 282 632 483 5 28 8 410 8 850 l0 800 -28 57 c-85 173 -324 317 -635 383 -196 41 -466 55 -652 34z m484 -175 c321 -47 549 -153 650 -304 18 -27 21 -95 6 -135 -16 -42 -100 -124 -170 -166 -214 -127 -609 -205 -917 -180 -451 36 -784 200 -783 385 1 125 168 261 418 340 254 80 519 100 796 60z m641 -1229 c-35 -61 -105 -118 -215 -174 -164 -84 -306 -127 -532 -161 -382 -57 -811 21 -1020 185 -86 67 -86 68 -88 383 -1 207 2 272 11 272 7 0 26 -11 43 -24 50 -38 124 -71 251 -115 292 -98 671 -117 1022 -50 183 35 407 123 510 199 l38 29 3 -251 2 -251 -25 -42z m5 -741 c-108 -223 -660 -400 -1133 -364 -278 21 -557 112 -680 220 l-42 38 -3 272 c-2 150 1 270 5 268 5 -1 60 -29 123 -60 124 -62 227 -95 385 -124 156 -29 536 -26 705 4 220 41 461 131 605 228 l50 33 3 -236 c2 -222 1 -239 -18 -279z"/>
  </g>
</svg>